<?xml version='1.0' encoding='iso-8859-1'?>
<svg version="1.1" xmlns="http://www.w3.org/2000/svg" viewBox="0 0 511 511" xmlns:xlink="http://www.w3.org/1999/xlink" enable-background="new 0 0 511 511">
  <g>
    <path d="M415.5,40h-3.754l-14.824-24.707C391.262,5.86,380.913,0,369.912,0H141.088c-11.001,0-21.351,5.86-27.011,15.293L99.253,40   H95.5C82.542,40,72,50.542,72,63.5S82.542,87,95.5,87h1.045l30.36,402.269C127.824,501.455,138.117,511,150.338,511h210.324   c12.221,0,22.514-9.545,23.433-21.731L414.455,87h1.045c12.958,0,23.5-10.542,23.5-23.5S428.458,40,415.5,40z M126.94,23.011   C129.905,18.07,135.326,15,141.088,15h228.823c5.762,0,11.184,3.07,14.148,8.011L394.253,40H116.747L126.94,23.011z M395.111,144   h-43.613c-4.142,0-7.5,3.358-7.5,7.5s3.358,7.5,7.5,7.5h42.481l-19.396,257h-39.082c-4.142,0-7.5,3.358-7.5,7.5s3.358,7.5,7.5,7.5   h37.95l-4.312,57.14c-0.333,4.408-4.056,7.86-8.476,7.86H150.338c-4.42,0-8.143-3.453-8.476-7.86L137.549,431H303.5   c4.142,0,7.5-3.358,7.5-7.5s-3.358-7.5-7.5-7.5H136.417l-19.396-257h202.475c4.142,0,7.5-3.358,7.5-7.5s-3.358-7.5-7.5-7.5H115.889   l-4.302-57h287.825L395.111,144z M415.5,72h-8h-304h-8c-4.687,0-8.5-3.813-8.5-8.5s3.813-8.5,8.5-8.5h311.992   c0.005,0,0.01,0.001,0.015,0.001c0.005,0,0.01-0.001,0.015-0.001h7.978c4.687,0,8.5,3.813,8.5,8.5S420.187,72,415.5,72z"/>
    <path d="m307.88,249.96c-3.623,2.008-4.932,6.573-2.924,10.196 4.608,8.315 7.044,17.77 7.044,27.344 0,31.154-25.346,56.5-56.5,56.5s-56.5-25.346-56.5-56.5 25.346-56.5 56.5-56.5c9.943,0 19.717,2.616 28.266,7.566 3.584,2.076 8.173,0.852 10.249-2.732 2.075-3.585 0.852-8.173-2.733-10.249-10.83-6.271-23.203-9.585-35.782-9.585-39.425,0-71.5,32.075-71.5,71.5s32.075,71.5 71.5,71.5 71.5-32.075 71.5-71.5c0-12.111-3.086-24.081-8.924-34.615-2.008-3.623-6.573-4.93-10.196-2.925z"/>
  </g>
</svg>
