<?xml version='1.0' encoding='iso-8859-1'?>
<svg version="1.1" xmlns="http://www.w3.org/2000/svg" viewBox="0 0 511 511" xmlns:xlink="http://www.w3.org/1999/xlink" enable-background="new 0 0 511 511">
  <g>
    <path d="m419.708,151.5l62.646-140.954c1.031-2.32 0.818-5.004-0.565-7.133s-3.75-3.413-6.289-3.413h-232c-0.03,0-0.059,0.004-0.089,0.005-0.217,0.003-0.433,0.012-0.648,0.033-0.122,0.012-0.24,0.034-0.359,0.052-0.122,0.018-0.245,0.032-0.367,0.056-0.131,0.026-0.259,0.062-0.388,0.095-0.108,0.027-0.217,0.051-0.324,0.083-0.125,0.038-0.246,0.085-0.369,0.129-0.108,0.039-0.218,0.075-0.324,0.119-0.114,0.047-0.224,0.103-0.336,0.156-0.11,0.052-0.221,0.101-0.329,0.159-0.107,0.058-0.209,0.123-0.314,0.185-0.106,0.063-0.213,0.123-0.316,0.192-0.115,0.077-0.224,0.162-0.334,0.245-0.085,0.064-0.173,0.123-0.256,0.191-0.383,0.314-0.734,0.665-1.047,1.047-0.07,0.086-0.132,0.176-0.198,0.264-0.08,0.107-0.164,0.213-0.239,0.324-0.072,0.107-0.134,0.219-0.2,0.329-0.06,0.1-0.122,0.197-0.177,0.3-0.061,0.113-0.112,0.23-0.166,0.346-0.05,0.106-0.103,0.21-0.148,0.319-0.047,0.113-0.085,0.229-0.126,0.344-0.042,0.116-0.086,0.23-0.122,0.349-0.035,0.116-0.061,0.234-0.09,0.351-0.03,0.12-0.064,0.238-0.088,0.36-0.027,0.136-0.043,0.274-0.063,0.411-0.015,0.105-0.035,0.208-0.045,0.315-0.025,0.247-0.038,0.495-0.038,0.744v24.497h-161v-8.5c0-12.958-10.542-23.5-23.5-23.5s-23.5,10.542-23.5,23.5v480c0,4.143 3.358,7.5 7.5,7.5h32c4.142,0 7.5-3.357 7.5-7.5v-168.5h184.5c12.958,0 23.5-10.542 23.5-23.5v-8.5h192.5c2.539,0 4.905-1.284 6.289-3.413s1.596-4.813 0.565-7.133l-62.646-140.954zm-168.708-125.894l6.394,6.394h-6.394v-6.394zm-191,470.394h-17v-472.5c0-4.687 3.813-8.5 8.5-8.5s8.5,3.813 8.5,8.5v16 288 168.5zm208-184.5c0,4.687-3.813,8.5-8.5,8.5h-184.5v-273h193v264.5zm15-23.5v-248.497c0-0.248-0.013-0.496-0.037-0.744-0.01-0.106-0.031-0.21-0.045-0.315-0.02-0.137-0.036-0.275-0.063-0.411-0.024-0.122-0.058-0.24-0.088-0.36-0.029-0.117-0.055-0.235-0.09-0.351-0.036-0.118-0.08-0.231-0.121-0.347-0.041-0.116-0.079-0.232-0.127-0.346-0.045-0.108-0.098-0.212-0.147-0.317-0.055-0.116-0.106-0.233-0.167-0.347-0.055-0.103-0.118-0.2-0.177-0.3-0.066-0.11-0.128-0.222-0.2-0.329-0.075-0.112-0.158-0.217-0.239-0.324-0.066-0.088-0.127-0.179-0.198-0.264-0.157-0.192-0.323-0.376-0.498-0.551l-19.197-19.197h202.354l-59.313,133.454c-0.862,1.939-0.862,4.153 0,6.092l59.313,133.454h-180.96z"/>
    <path d="m243.5,64h-40c-4.142,0-7.5,3.358-7.5,7.5s3.358,7.5 7.5,7.5h40c4.142,0 7.5-3.358 7.5-7.5s-3.358-7.5-7.5-7.5z"/>
    <path d="m411.5,47h16c4.142,0 7.5-3.358 7.5-7.5s-3.358-7.5-7.5-7.5h-16c-4.142,0-7.5,3.358-7.5,7.5s3.358,7.5 7.5,7.5z"/>
    <path d="m379.5,32h-64c-4.142,0-7.5,3.358-7.5,7.5s3.358,7.5 7.5,7.5h64c4.142,0 7.5-3.358 7.5-7.5s-3.358-7.5-7.5-7.5z"/>
  </g>
</svg>
