<?xml version='1.0' encoding='iso-8859-1'?>
<svg version="1.1" xmlns="http://www.w3.org/2000/svg" viewBox="0 0 510.929 510.929" xmlns:xlink="http://www.w3.org/1999/xlink" enable-background="new 0 0 510.929 510.929">
  <g>
    <path d="m355.674,37.782c-7.092-4.295-15.713-4.567-23.061-0.725l-324.294,169.517c-5.131,2.682-8.319,7.945-8.319,13.736v70.31c0,5.791 3.188,11.054 8.319,13.736l71.844,37.555c-0.106,0.502-0.163,1.021-0.163,1.554v44.042c0,14.756 8.124,28.17 21.201,35.005l91.706,47.938c4.624,2.417 9.622,3.619 14.608,3.619 5.637,0 11.259-1.537 16.303-4.592 9.506-5.757 15.182-15.83 15.182-26.943v-17.594l93.614,48.934c3.449,1.803 7.178,2.7 10.898,2.7 4.205,0 8.399-1.146 12.162-3.425 7.092-4.295 11.326-11.81 11.326-20.101v-395.165c0-8.292-4.234-15.806-11.326-20.101zm-131.674,404.751c0,5.821-2.973,11.097-7.952,14.113-4.98,3.016-11.033,3.206-16.191,0.51l-91.707-47.938c-8.111-4.24-13.15-12.559-13.15-21.712v-37.84l129,67.432v25.435zm128,10.514c0,3.043-1.493,5.694-4.097,7.271-2.604,1.577-5.644,1.672-8.341,0.263l-324.293-169.518c-0.166-0.087-0.269-0.256-0.269-0.443v-70.31c0-0.187 0.103-0.356 0.269-0.443l324.294-169.518c1.268-0.663 2.611-0.993 3.95-0.993 1.509,0 3.011,0.419 4.391,1.255 2.604,1.577 4.097,4.227 4.097,7.271v395.165z"/>
    <path d="m410.058,204.907c-2.929-2.929-7.678-2.929-10.606,0-2.929,2.929-2.929,7.678 0,10.606 22.029,22.029 22.029,57.874 0,79.903-2.929,2.929-2.929,7.678 0,10.606 1.464,1.464 3.384,2.197 5.303,2.197s3.839-0.732 5.303-2.197c27.878-27.877 27.878-73.237 0-101.115z"/>
    <path d="m438.342,176.622c-2.929-2.929-7.678-2.929-10.606,0-2.929,2.929-2.929,7.678 0,10.606 18.226,18.227 28.264,42.46 28.264,68.237 0,25.776-10.038,50.009-28.264,68.236-2.929,2.929-2.929,7.678 0,10.606 1.464,1.464 3.384,2.197 5.303,2.197s3.839-0.732 5.303-2.197c21.06-21.06 32.658-49.06 32.658-78.842s-11.598-57.783-32.658-78.843z"/>
    <path d="m466.626,148.338c-2.929-2.929-7.678-2.929-10.606,0-2.929,2.929-2.929,7.678 0,10.606 53.221,53.221 53.221,139.819 0,193.04-2.929,2.929-2.929,7.678 0,10.606 1.464,1.464 3.384,2.197 5.303,2.197s3.839-0.732 5.303-2.197c59.07-59.069 59.07-155.182 0-214.252z"/>
    <path d="m276.025,101.033l-106.087,55.455c-3.67,1.918-5.091,6.45-3.172,10.121 1.339,2.562 3.95,4.027 6.653,4.027 1.17,0 2.359-0.275 3.468-0.855l106.087-55.455c3.67-1.918 5.091-6.45 3.172-10.121-1.918-3.671-6.449-5.092-10.121-3.172z"/>
    <path d="m324.025,75.941l-16,8.364c-3.671,1.919-5.091,6.45-3.172,10.121 1.339,2.562 3.95,4.027 6.653,4.027 1.17,0 2.359-0.275 3.468-0.855l16-8.364c3.671-1.918 5.091-6.45 3.172-10.121s-6.449-5.091-10.121-3.172z"/>
  </g>
</svg>
