<?xml version='1.0' encoding='iso-8859-1'?>
<svg version="1.1" xmlns="http://www.w3.org/2000/svg" viewBox="0 0 511 511" xmlns:xlink="http://www.w3.org/1999/xlink" enable-background="new 0 0 511 511">
  <g>
    <path d="m415.5,264c-12.958,0-23.5,10.542-23.5,23.5s10.542,23.5 23.5,23.5 23.5-10.542 23.5-23.5-10.542-23.5-23.5-23.5zm0,32c-4.687,0-8.5-3.813-8.5-8.5s3.813-8.5 8.5-8.5 8.5,3.813 8.5,8.5-3.813,8.5-8.5,8.5z"/>
    <path d="m487.5,288h-12.714c-7.649-28.321-25.631-54.543-51.786-75.844v-60.656c0-4.142-3.358-7.5-7.5-7.5-22.557,0-42.845,13.723-51.345,34.418-30.792-12.006-65.342-18.418-100.655-18.418-57.138,0-110.942,16.324-151.503,45.964-33.545,24.514-54.84,55.743-61.635,89.698-19.913-2.534-35.362-19.572-35.362-40.162 0-14.416 7.762-27.86 20.257-35.087 3.585-2.074 4.811-6.662 2.737-10.248s-6.662-4.809-10.248-2.737c-17.114,9.9-27.746,28.32-27.746,48.072 0,28.177 21.111,51.499 48.343,55.023-0.22,2.978-0.343,5.97-0.343,8.977v88c0,19.217 13.793,35.273 32,38.786v41.214c0,12.958 10.542,23.5 23.5,23.5h32c12.958,0 23.5-10.542 23.5-23.5v-40.5h177v40.5c0,12.958 10.542,23.5 23.5,23.5h32c12.958,0 23.5-10.542 23.5-23.5v-40.5h24.5c21.78,0 39.5-17.72 39.5-39.5v-16.5h8.5c12.958,0 23.5-10.542 23.5-23.5v-56c0-12.958-10.542-23.5-23.5-23.5zm-79.5-128.299v41.393c-1.588-1.062-3.191-2.114-4.826-3.143-7.975-5.022-16.408-9.572-25.208-13.646 5.208-12.86 16.629-22.072 30.034-24.604zm-272.5,336.299h-32c-4.687,0-8.5-3.813-8.5-8.5v-8.5h49v8.5c0,4.687-3.813,8.5-8.5,8.5zm256,0h-32c-4.687,0-8.5-3.813-8.5-8.5v-8.5h49v8.5c0,4.687-3.813,8.5-8.5,8.5zm104.5-128.5c0,4.687-3.813,8.5-8.5,8.5h-8.5v-48.5c0-4.142-3.358-7.5-7.5-7.5s-7.5,3.358-7.5,7.5v56 24c0,13.509-10.991,24.5-24.5,24.5h-32c-4.142,0-7.5,3.358-7.5,7.5v24.5h-49v-24.5c0-4.142-3.358-7.5-7.5-7.5h-192c-4.142,0-7.5,3.358-7.5,7.5v24.5h-49v-24.5c0-4.142-3.358-7.5-7.5-7.5-13.509,0-24.5-10.991-24.5-24.5v-88c0-79.678 89.944-144.5 200.5-144.5 48.414,0 95.18,12.659 131.682,35.644 35.568,22.397 59.144,53.098 66.385,86.447 0.749,3.449 3.8,5.909 7.329,5.909h18.604c4.687,0 8.5,3.813 8.5,8.5v56z"/>
    <path d="m296.343,193.835c-24.333-2.746-49.751-2.39-73.899,1.047-4.101,0.584-6.952,4.381-6.369,8.482 0.533,3.743 3.742,6.445 7.416,6.444 0.352,0 0.708-0.025 1.066-0.076 22.896-3.259 47.026-3.598 70.104-0.992 4.112,0.464 7.83-2.495 8.293-6.612 0.465-4.115-2.495-7.828-6.611-8.293z"/>
    <path d="M263.5,143c39.425,0,71.5-32.075,71.5-71.5S302.925,0,263.5,0S192,32.075,192,71.5S224.075,143,263.5,143z M263.5,15   c31.154,0,56.5,25.346,56.5,56.5S294.654,128,263.5,128S207,102.654,207,71.5S232.346,15,263.5,15z"/>
    <path d="m263.5,47c13.509,0 24.5,10.991 24.5,24.5 0,4.142 3.358,7.5 7.5,7.5s7.5-3.358 7.5-7.5c0-21.78-17.72-39.5-39.5-39.5-4.142,0-7.5,3.358-7.5,7.5s3.358,7.5 7.5,7.5z"/>
  </g>
</svg>
