<?xml version='1.0' encoding='iso-8859-1'?>
<svg version="1.1" xmlns="http://www.w3.org/2000/svg" viewBox="0 0 511 511" xmlns:xlink="http://www.w3.org/1999/xlink" enable-background="new 0 0 511 511">
  <g>
    <path d="M488.803,234.197l-40-40c-1.406-1.407-3.314-2.197-5.303-2.197H259v-65h128.5c1.989,0,3.897-0.79,5.303-2.197l40-40   c2.929-2.929,2.929-7.678,0-10.606l-40-40C391.397,32.79,389.489,32,387.5,32H259v-8.5C259,10.542,248.458,0,235.5,0   S212,10.542,212,23.5V112H67.5c-1.989,0-3.897,0.79-5.303,2.197l-40,40c-2.929,2.929-2.929,7.678,0,10.606l40,40   C63.603,206.21,65.511,207,67.5,207H212v296.5c0,4.142,3.358,7.5,7.5,7.5h32c4.142,0,7.5-3.358,7.5-7.5V287h184.5   c1.989,0,3.897-0.79,5.303-2.197l40-40C491.732,241.875,491.732,237.125,488.803,234.197z M384.394,47l32.5,32.5l-32.5,32.5H259V47   H384.394z M70.606,192l-32.5-32.5l32.5-32.5H212v65H70.606z M244,496h-17V199.5v-80v-96c0-4.687,3.813-8.5,8.5-8.5   s8.5,3.813,8.5,8.5v16v80v80v80V496z M440.394,272H259v-65h181.394l32.5,32.5L440.394,272z"/>
    <path d="m331.5,87h48c4.142,0 7.5-3.358 7.5-7.5s-3.358-7.5-7.5-7.5h-48c-4.142,0-7.5,3.358-7.5,7.5s3.358,7.5 7.5,7.5z"/>
    <path d="m291.5,87h8c4.142,0 7.5-3.358 7.5-7.5s-3.358-7.5-7.5-7.5h-8c-4.142,0-7.5,3.358-7.5,7.5s3.358,7.5 7.5,7.5z"/>
    <path d="m403.5,232c-4.142,0-7.5,3.358-7.5,7.5s3.358,7.5 7.5,7.5h32c4.142,0 7.5-3.358 7.5-7.5s-3.358-7.5-7.5-7.5h-32z"/>
    <path d="m371.5,232h-80c-4.142,0-7.5,3.358-7.5,7.5s3.358,7.5 7.5,7.5h80c4.142,0 7.5-3.358 7.5-7.5s-3.358-7.5-7.5-7.5z"/>
    <path d="m179.5,152h-32c-4.142,0-7.5,3.358-7.5,7.5s3.358,7.5 7.5,7.5h32c4.142,0 7.5-3.358 7.5-7.5s-3.358-7.5-7.5-7.5z"/>
    <path d="m115.5,152h-32c-4.142,0-7.5,3.358-7.5,7.5s3.358,7.5 7.5,7.5h32c4.142,0 7.5-3.358 7.5-7.5s-3.358-7.5-7.5-7.5z"/>
  </g>
</svg>
