<?xml version='1.0' encoding='iso-8859-1'?>
<svg version="1.1" xmlns="http://www.w3.org/2000/svg" viewBox="0 0 511 511" xmlns:xlink="http://www.w3.org/1999/xlink" enable-background="new 0 0 511 511">
  <g>
    <path d="m239.5,47h32c4.142,0 7.5-3.358 7.5-7.5s-3.358-7.5-7.5-7.5h-32c-4.142,0-7.5,3.358-7.5,7.5s3.358,7.5 7.5,7.5z"/>
    <path d="m215.501,47c1.97,0 3.91-0.8 5.3-2.2 1.4-1.39 2.2-3.32 2.2-5.3 0-1.97-0.8-3.91-2.2-5.3-1.39-1.4-3.33-2.2-5.3-2.2-1.98,0-3.91,0.8-5.31,2.2-1.39,1.39-2.19,3.33-2.19,5.3 0,1.98 0.8,3.91 2.19,5.3 1.4,1.399 3.34,2.2 5.31,2.2z"/>
    <path d="m255.5,456c-8.547,0-15.5,6.953-15.5,15.5s6.953,15.5 15.5,15.5 15.5-6.953 15.5-15.5-6.953-15.5-15.5-15.5zm0,16c-0.276,0-0.5-0.224-0.5-0.5s0.224-0.5 0.5-0.5 0.5,0.224 0.5,0.5-0.224,0.5-0.5,0.5z"/>
    <path d="m399,159.497v-39.995c0-0.002 0-0.003 0-0.005v-79.997c0-21.78-17.72-39.5-39.5-39.5h-208c-21.781,0-39.5,17.72-39.5,39.5v432c0,21.78 17.72,39.5 39.5,39.5h208c21.78,0 39.5-17.72 39.5-39.5v-311.997c0-0.002 0-0.004 0-0.006zm-40-21.891l21.578,21.578c-1.628,0.526-3.336,0.816-5.078,0.816-9.098,0-16.5-7.402-16.5-16.5v-5.894zm0-21.212v-18.788l25,25v18.787l-25-24.999zm25-15l-22.394-22.394h22.394v22.394zm-40-21.891v39.995c0,0.002 0,0.003 0,0.005v23.997c0,9.098-7.402,16.5-16.5,16.5s-16.5-7.402-16.5-16.5v-15.997c0-0.002 0-0.003 0-0.005v-47.998c0-0.169-0.014-0.334-0.025-0.5h33.049c-0.012,0.167-0.024,0.335-0.024,0.503zm-48,63.997c0,1.774-0.289,3.481-0.81,5.084l-32.19-32.19v-18.788l33,33v12.894zm-33-5.894l21.583,21.584c-1.603,0.521-3.309,0.81-5.083,0.81-9.098,0-16.5-7.402-16.5-16.5v-5.894zm33-58.106v29.894l-30.394-30.394h30.419c-0.011,0.166-0.025,0.331-0.025,0.5zm-48,.003v39.995c0,0.002 0,0.003 0,0.005v23.997c0,9.098-7.402,16.5-16.5,16.5s-16.5-7.402-16.5-16.5v-15.997c0-0.002 0-0.003 0-0.005v-47.998c0-0.169-0.014-0.334-0.025-0.5h33.049c-0.012,0.167-0.024,0.335-0.024,0.503zm-48,63.997c0,1.774-0.289,3.481-0.81,5.084l-32.19-32.19v-18.788l33,33v12.894zm-33-5.894l21.583,21.584c-1.603,0.521-3.309,0.81-5.083,0.81-9.098,0-16.5-7.402-16.5-16.5v-5.894zm33-58.106v29.894l-30.394-30.394h30.419c-0.011,0.166-0.025,0.331-0.025,0.5zm-48,.003v39.995c0,0.002 0,0.003 0,0.005v23.997c0,4.571-1.827,8.822-5.145,11.971-3.314,3.146-7.66,4.745-12.254,4.505-3.164-0.166-5.687-1.275-7.602-2.551v-78.425h25.024c-0.011,0.167-0.023,0.335-0.023,0.503zm-25,94.283c2.214,0.649 4.5,1.048 6.817,1.169 0.572,0.03 1.141,0.045 1.709,0.045 8.105,0 15.74-3.037 21.655-8.649 0.822-0.78 1.598-1.603 2.326-2.461 5.782,6.793 14.393,11.11 23.993,11.11 9.604,0 18.218-4.32 24-11.119 5.782,6.799 14.396,11.119 24,11.119s18.218-4.32 24-11.119c5.782,6.799 14.396,11.119 24,11.119s18.218-4.32 24-11.119c5.782,6.799 14.396,11.119 24,11.119s18.218-4.32 24-11.119c5.782,6.799 14.396,11.119 24,11.119 2.9,0 5.757-0.398 8.5-1.166v258.166h-257v-258.214zm24.5-158.786h208c13.509,0 24.5,10.991 24.5,24.5v24.5h-257v-24.5c0-13.509 10.99-24.5 24.5-24.5zm208,481h-208c-13.509,0-24.5-10.991-24.5-24.5v-24.5h257v24.5c0,13.509-10.991,24.5-24.5,24.5z"/>
    <path d="m319.5,240h-123.477l-3.64-7.148c-2.557-5.383-8.034-8.852-14.002-8.852h-10.881c-4.142,0-7.5,3.358-7.5,7.5s3.358,7.5 7.5,7.5h10.881c0.194,0 0.373,0.114 0.454,0.29 0.041,0.088 0.083,0.175 0.127,0.261l39.358,77.289c2.438,5.214 6.23,9.539 10.828,12.667l-9.867,14.801c-1.231-0.2-2.494-0.308-3.781-0.308-12.958,0-23.5,10.542-23.5,23.5s10.542,23.5 23.5,23.5c10.336,0 19.128-6.71 22.266-16h43.469c3.138,9.29 11.93,16 22.266,16 12.958,0 23.5-10.542 23.5-23.5s-10.543-23.5-23.501-23.5c-10.336,0-19.128,6.71-22.266,16h-43.469c-1.096-3.244-2.879-6.171-5.179-8.609l11.051-16.577c1.064,0.11 2.135,0.186 3.218,0.186h48.645c17.369,0 31.5-14.131 31.5-31.5v-56c0-4.142-3.358-7.5-7.5-7.5zm-104,136c-4.687,0-8.5-3.813-8.5-8.5s3.813-8.5 8.5-8.5 8.5,3.813 8.5,8.5-3.813,8.5-8.5,8.5zm88-17c4.687,0 8.5,3.813 8.5,8.5s-3.813,8.5-8.5,8.5-8.5-3.813-8.5-8.5 3.813-8.5 8.5-8.5zm8.5-55.5c0,9.098-7.402,16.5-16.5,16.5h-48.644c-6.414,0-12.294-3.763-14.981-9.585-0.041-0.087-0.083-0.174-0.126-0.26l-28.087-55.155h108.338v48.5z"/>
  </g>
</svg>
