<?xml version='1.0' encoding='iso-8859-1'?>
<svg version="1.1" xmlns="http://www.w3.org/2000/svg" viewBox="0 0 511.001 511.001" xmlns:xlink="http://www.w3.org/1999/xlink" enable-background="new 0 0 511.001 511.001">
  <g>
    <path d="m511.001,103.5c0-28.748-15.213-54.732-40-68.908v-19.092c0-8.547-6.953-15.5-15.5-15.5h-48c-8.547,0-15.5,6.953-15.5,15.5v8.5h-160.5c-8.547,0-15.5,6.953-15.5,15.5v8.5h-96.5c-8.547,0-15.5,6.953-15.5,15.5v0.5h-56.5c-8.547,0-15.5,6.953-15.5,15.5v0.5h-16.5c-8.547,0-15.5,6.953-15.5,15.5v16c0,8.547 6.953,15.5 15.5,15.5h16.5v0.5c0,8.547 6.953,15.5 15.5,15.5h56.5v0.5c0,8.547 6.953,15.5 15.5,15.5h96.5v8.5c0,0.844 0.146,1.652 0.403,2.41-0.26,1.827-0.403,3.692-0.403,5.59 0,12.066 5.444,22.879 13.998,30.13l-165.039,294.201c-2.027,3.613-0.741,8.184 2.872,10.21 1.161,0.651 2.42,0.96 3.663,0.96 2.625,0 5.172-1.38 6.548-3.832l165.03-294.184c1.601,0.532 3.245,0.966 4.929,1.292v289.223c0,4.142 3.358,7.5 7.5,7.5s7.5-3.358 7.5-7.5v-289.223c1.684-0.325 3.328-0.759 4.929-1.292l165.03,294.184c1.375,2.452 3.923,3.832 6.548,3.832 1.242,0 2.502-0.31 3.663-0.96 3.612-2.026 4.898-6.598 2.872-10.21l-165.039-294.2c6.736-5.71 11.537-13.629 13.275-22.63h97.723v8.5c0,8.547 6.953,15.5 15.5,15.5h48c8.547,0 15.5-6.953 15.5-15.5v-19.092c24.785-14.177 39.998-40.161 39.998-68.909zm-255.5,96.5c-13.509,0-24.5-10.991-24.5-24.5s10.991-24.5 24.5-24.5 24.5,10.991 24.5,24.5-10.991,24.5-24.5,24.5zm-240-88c-0.276,0-0.5-0.224-0.5-0.5v-16c0-0.276 0.224-0.5 0.5-0.5h16.5v17h-16.5zm32,16c-0.276,0-0.5-0.224-0.5-0.5v-48c0-0.276 0.224-0.5 0.5-0.5h56.5v49h-56.5zm72,16c-0.276,0-0.5-0.224-0.5-0.5v-80c0-0.276 0.224-0.5 0.5-0.5h96.5v81h-96.5zm174.776,24c-3.515-18.205-19.561-32-38.777-32-9.25,0-17.761,3.205-24.5,8.551v-105.051c0-0.276 0.224-0.5 0.5-0.5h160.5v129h-97.723zm161.724,23.5c0,0.276-0.224,0.5-0.5,0.5h-48c-0.276,0-0.5-0.224-0.5-0.5v-176c0-0.276 0.224-0.5 0.5-0.5h48c0.276,0 0.5,0.224 0.5,0.5v176zm15-37.076v-101.848c15.662,12.069 25,30.651 25,50.924s-9.339,38.855-25,50.924z"/>
    <path d="m367.501,56h-16c-4.142,0-7.5,3.358-7.5,7.5s3.358,7.5 7.5,7.5h16c4.142,0 7.5-3.358 7.5-7.5s-3.358-7.5-7.5-7.5z"/>
    <path d="m319.501,56h-48c-4.142,0-7.5,3.358-7.5,7.5s3.358,7.5 7.5,7.5h48c4.142,0 7.5-3.358 7.5-7.5s-3.358-7.5-7.5-7.5z"/>
    <path d="m191.501,80h-24c-4.142,0-7.5,3.358-7.5,7.5s3.358,7.5 7.5,7.5h24c4.142,0 7.5-3.358 7.5-7.5s-3.358-7.5-7.5-7.5z"/>
    <path d="m255.501,168c-1.98,0-3.91,0.8-5.3,2.2-1.4,1.39-2.2,3.33-2.2,5.3 0,1.98 0.8,3.91 2.2,5.3 1.39,1.4 3.32,2.2 5.3,2.2s3.91-0.8 5.3-2.2c1.4-1.39 2.2-3.32 2.2-5.3 0-1.97-0.8-3.91-2.2-5.3-1.391-1.401-3.32-2.2-5.3-2.2z"/>
  </g>
</svg>
